<svg width="108" height="32" viewBox="0 0 108 32" fill="none" xmlns="http://www.w3.org/2000/svg">
<path d="M36.3855 23.9091V17.638C36.3855 16.3205 36.1366 15.8198 35.7578 15.3275C35.3791 14.8324 34.7434 14.5863 33.8479 14.5863H31.5485V23.9091H27.2498V1.86769H35.1924C36.9833 1.86769 38.3765 2.33482 39.3721 3.27186C40.3676 4.2089 40.8654 5.63264 40.8654 7.54868C40.8654 9.03117 40.5759 10.2395 39.9997 11.1766C39.4208 12.1136 38.5253 12.715 37.3134 12.9835V13.0451C38.3873 13.2101 39.1746 13.5709 39.6723 14.1248C40.1701 14.6814 40.6868 15.4674 40.6868 18.1526V23.9091H36.3855ZM33.3393 11.4982C34.3754 11.4982 35.1708 11.2465 35.7281 10.743C36.2854 10.2395 36.564 9.3892 36.564 8.19482C36.564 6.1585 35.5685 5.13755 33.5774 5.13755H31.5457V11.4982H33.3393Z" fill="#151515"/>
<path d="M69.7061 23.9091V17.638C69.7061 16.3205 69.4572 15.8198 69.0785 15.3275C68.6997 14.8324 68.064 14.5863 67.1686 14.5863H64.8691V23.9091H60.5704V1.86769H68.5131C70.304 1.86769 71.6972 2.33482 72.6927 3.27186C73.6882 4.2089 74.186 5.63264 74.186 7.54868C74.186 9.03117 73.8965 10.2395 73.3203 11.1766C72.7414 12.1136 71.8459 12.715 70.634 12.9835V13.0451C71.708 13.2101 72.4952 13.5709 72.993 14.1248C73.4907 14.6814 74.0074 15.4674 74.0074 18.1526V23.9091H69.7061ZM66.6627 11.4982C67.6988 11.4982 68.4941 11.2465 69.0514 10.743C69.6087 10.2395 69.8873 9.3892 69.8873 8.19482C69.8873 6.1585 68.8918 5.13755 66.9007 5.13755H64.8691V11.4982H66.6627Z" fill="#151515"/>
<path d="M53.2852 1.86769L58.9284 23.9091H54.4512L53.4664 19.2463H47.7935L46.8088 23.9091H42.3289L47.9694 1.86769H53.2852ZM52.7171 15.6044L50.6584 5.69418H50.5989L48.5375 15.6044H52.7171Z" fill="#151515"/>
<path d="M76.3888 8.27315C76.5376 6.86339 76.8677 5.65503 77.3735 4.64526C77.8821 3.63829 78.6126 2.8495 79.5675 2.28447C80.5225 1.71945 81.8075 1.43414 83.4198 1.43414C85.0321 1.43414 86.3171 1.71665 87.2721 2.28447C88.227 2.8495 88.9602 3.63829 89.466 4.64526C89.9746 5.65503 90.302 6.86339 90.4508 8.27315C90.5995 9.68291 90.6753 11.2213 90.6753 12.8884C90.6753 14.5555 90.5995 16.1191 90.4508 17.5205C90.302 18.9191 89.9719 20.1246 89.466 21.1316C88.9575 22.1414 88.227 22.9134 87.2721 23.4476C86.3171 23.9819 85.0321 24.2504 83.4198 24.2504C81.8075 24.2504 80.5225 23.9819 79.5675 23.4476C78.6126 22.9134 77.8794 22.1414 77.3735 21.1316C76.865 20.1246 76.5376 18.9191 76.3888 17.5205C76.24 16.1219 76.1643 14.5779 76.1643 12.8884C76.1643 11.199 76.24 9.68291 76.3888 8.27315ZM80.5685 16.6702C80.6388 17.7107 80.7768 18.5526 80.9851 19.2016C81.1934 19.8505 81.4937 20.3232 81.8805 20.6225C82.2674 20.9218 82.7814 21.0701 83.4171 21.0701C84.0528 21.0701 84.5668 20.9218 84.9537 20.6225C85.3405 20.3232 85.6408 19.8505 85.8491 19.2016C86.0574 18.5526 86.1981 17.7107 86.2657 16.6702C86.3361 15.6324 86.3712 14.3709 86.3712 12.8884C86.3712 11.4059 86.3361 10.15 86.2657 9.12348C86.1954 8.09413 86.0574 7.25219 85.8491 6.59207C85.6408 5.93474 85.3405 5.45643 84.9537 5.15713C84.5641 4.85784 84.0528 4.70959 83.4171 4.70959C82.7814 4.70959 82.2674 4.86064 81.8805 5.15713C81.4909 5.45643 81.1934 5.93474 80.9851 6.59207C80.7768 7.25219 80.6361 8.09413 80.5685 9.12348C80.4981 10.1528 80.4629 11.4087 80.4629 12.8884C80.4629 14.3681 80.4981 15.6324 80.5685 16.6702Z" fill="#151515"/>
<path d="M102.538 7.14589C102.449 6.71234 102.303 6.31794 102.106 5.95711C101.905 5.59628 101.654 5.29978 101.345 5.06203C101.037 4.82707 100.664 4.70679 100.225 4.70679C99.1894 4.70679 98.4427 5.30258 97.9855 6.49696C97.5283 7.69134 97.2984 9.66612 97.2984 12.4241C97.2984 13.7415 97.339 14.9359 97.4174 16.0044C97.4959 17.0757 97.6419 17.9848 97.8503 18.7372C98.0586 19.4897 98.3588 20.0659 98.7457 20.4659C99.1325 20.8687 99.6357 21.0673 100.253 21.0673C100.512 21.0673 100.794 20.9945 101.105 20.8519C101.413 20.7092 101.703 20.491 101.97 20.2029C102.238 19.9148 102.463 19.5512 102.641 19.1065C102.82 18.6645 102.909 18.1442 102.909 17.5485V15.294H100.071V12.0213H107.029V23.9064H103.864V21.87H103.805C103.288 22.7343 102.666 23.3469 101.938 23.7078C101.21 24.0686 100.339 24.2476 99.3246 24.2476C98.0099 24.2476 96.9413 24.0098 96.1135 23.5371C95.2884 23.0644 94.6391 22.3344 94.1738 21.3442C93.7058 20.3568 93.392 19.1372 93.2324 17.6855C93.0728 16.2338 92.9943 14.5527 92.9943 12.6367C92.9943 10.7206 93.1079 9.15983 93.3379 7.75847C93.5651 6.3599 93.9601 5.1907 94.5174 4.25365C95.0747 3.31661 95.8105 2.61173 96.7276 2.13902C97.642 1.6663 98.789 1.42854 100.161 1.42854C102.509 1.42854 104.202 2.02993 105.236 3.23549C106.272 4.43826 106.788 6.1641 106.788 8.4074H102.668C102.668 7.99623 102.622 7.57386 102.533 7.1431L102.538 7.14589Z" fill="#151515"/>
<path fill-rule="evenodd" clip-rule="evenodd" d="M6.47445 0.793648H15.6188L15.3156 2.37229C14.6728 5.72035 13.7013 8.95158 12.436 12.0214C12.8121 12.8729 13.2126 13.7105 13.6364 14.5331C15.0774 10.6293 17.1164 7.04993 19.8963 3.98035L22.1071 1.53931V21.1424C22.1071 21.8041 22.1071 22.3787 22.0697 22.8526C22.0301 23.354 21.9422 23.8581 21.7025 24.3446C21.3466 25.0668 20.7787 25.654 20.0802 26.0219C19.6097 26.2698 19.1222 26.3606 18.6373 26.4016C18.1789 26.4403 17.6232 26.4403 16.9832 26.4403H14.3885C13.8746 28.0158 13.0588 29.4407 12.0171 30.6349L11.0589 31.7334L10.111 30.6254C9.07823 29.4183 8.26527 27.9976 7.7513 26.4403H5.15305C4.51307 26.4403 3.95739 26.4403 3.49898 26.4016C3.01405 26.3606 2.52657 26.2698 2.05604 26.0219C1.35756 25.654 0.78968 25.0668 0.433788 24.3446C0.194042 23.8581 0.106221 23.354 0.0666001 22.8526C0.0291467 22.3787 0.0291674 21.8041 0.0291913 21.1424L0.0291924 1.52519L2.24245 3.98313C5.00506 7.05116 7.03638 10.601 8.47612 14.4744C8.88738 13.6711 9.27646 12.8535 9.64255 12.0226C8.37423 8.95197 7.40262 5.71885 6.77108 2.36771L6.47445 0.793648ZM11.0384 8.46973C11.6063 6.8321 12.088 5.15199 12.4779 3.43633H9.60482C9.9902 5.15169 10.4703 6.83182 11.0384 8.46973ZM11.0408 15.1033C10.5771 16.0405 10.0851 16.96 9.56589 17.8603C9.80078 18.7132 10.0111 19.5785 10.1983 20.4547L10.5414 22.061H3.69108L5.16608 19.9627C5.73209 19.1576 6.27341 18.3319 6.78893 17.4872C5.79687 14.2497 4.41906 11.2606 2.58507 8.59353V21.092C2.58507 21.8186 2.58606 22.284 2.61399 22.6374C2.64069 22.9754 2.68553 23.093 2.71109 23.1448C2.82194 23.3698 2.99882 23.5527 3.21638 23.6673C3.26655 23.6937 3.38023 23.7401 3.70711 23.7677C4.0489 23.7966 4.49908 23.7976 5.2018 23.7976H9.7083L9.94783 24.8028C10.1812 25.782 10.5655 26.7091 11.0734 27.5537C11.5742 26.7215 11.9551 25.7963 12.1874 24.8071L12.4246 23.7976H16.9345C17.6372 23.7976 18.0874 23.7966 18.4292 23.7677C18.7561 23.7401 18.8697 23.6937 18.9199 23.6673C19.1375 23.5527 19.3143 23.3698 19.4252 23.1448C19.4508 23.093 19.4956 22.9754 19.5223 22.6374C19.5502 22.284 19.5512 21.8186 19.5512 21.092V8.58357C17.7072 11.2611 16.3238 14.2766 15.3302 17.541C15.8366 18.3669 16.3675 19.1746 16.9215 19.9627L18.3965 22.061H11.5949L11.938 20.4547C12.1207 19.5994 12.3255 18.7539 12.5537 17.9199C12.0207 17.0007 11.5159 16.0613 11.0408 15.1033Z" fill="#151515"/>
</svg>
